<?xml version="1.0" encoding="utf-8"?>
<!-- Generator: Adobe Illustrator 24.0.3, SVG Export Plug-In . SVG Version: 6.00 Build 0)  -->
<svg version="1.1" id="Layer_1" xmlns="http://www.w3.org/2000/svg" xmlns:xlink="http://www.w3.org/1999/xlink" x="0px" y="0px"
	 viewBox="0 0 105.9 38.5" style="enable-background:new 0 0 105.9 38.5;" xml:space="preserve">
<title>09 Snow</title>
<path d="M25.5,2c0.3-0.4,0.1-1-0.3-1.3c-0.3-0.2-0.7-0.2-1,0c-0.1-0.5-0.6-0.8-1.1-0.7c-0.3,0.1-0.6,0.3-0.7,0.7
	c-0.4-0.3-1-0.1-1.3,0.3c-0.2,0.3-0.2,0.7,0,1c-0.5,0.1-0.8,0.6-0.7,1.1c0.1,0.3,0.3,0.6,0.7,0.7c-0.3,0.4-0.1,1,0.3,1.3
	c0.3,0.2,0.7,0.2,1,0c0.1,0.5,0.6,0.8,1.1,0.7c0.3-0.1,0.6-0.3,0.7-0.7c0.4,0.3,1,0.1,1.3-0.3c0.2-0.3,0.2-0.7,0-1
	c0.5-0.1,0.8-0.6,0.7-1.1C26.1,2.3,25.8,2,25.5,2z"/>
<path d="M54.2,15.9c0.3-0.4,0.1-1-0.3-1.3c-0.3-0.2-0.7-0.2-1,0c-0.1-0.5-0.6-0.8-1.1-0.7c-0.3,0.1-0.6,0.3-0.7,0.7
	c-0.4-0.3-1-0.1-1.3,0.3c-0.2,0.3-0.2,0.7,0,1C49.3,16,49,16.5,49.1,17c0.1,0.3,0.3,0.6,0.7,0.7c-0.3,0.4-0.1,1,0.3,1.3
	c0.3,0.2,0.7,0.2,1,0c0.1,0.5,0.6,0.8,1.1,0.7c0.3-0.1,0.6-0.3,0.7-0.7c0.4,0.3,1,0.1,1.3-0.3c0.2-0.3,0.2-0.7,0-1
	c0.5-0.1,0.8-0.6,0.7-1.1C54.8,16.2,54.6,16,54.2,15.9z"/>
<path d="M5.1,15.9c0.3-0.4,0.1-1-0.3-1.3c-0.3-0.2-0.7-0.2-1,0c-0.1-0.5-0.6-0.8-1.1-0.7C2.4,14,2.1,14.2,2,14.6
	c-0.4-0.3-1-0.1-1.3,0.3c-0.2,0.3-0.2,0.7,0,1C0.2,16-0.1,16.5,0,17c0.1,0.3,0.3,0.6,0.7,0.7c-0.3,0.4-0.1,1,0.3,1.3
	c0.3,0.2,0.7,0.2,1,0c0.1,0.5,0.6,0.8,1.1,0.7c0.3-0.1,0.6-0.3,0.7-0.7c0.4,0.3,1,0.1,1.3-0.3c0.2-0.3,0.2-0.7,0-1
	c0.5-0.1,0.8-0.6,0.7-1.1C5.7,16.2,5.4,16,5.1,15.9L5.1,15.9z"/>
<path d="M74.8,2c0.3-0.4,0.1-1-0.3-1.3c-0.3-0.2-0.7-0.2-1,0c-0.1-0.5-0.6-0.8-1.1-0.7c-0.3,0.1-0.6,0.3-0.7,0.7
	c-0.4-0.3-1-0.1-1.3,0.3c-0.2,0.3-0.2,0.7,0,1c-0.5,0.1-0.8,0.6-0.7,1.1c0.1,0.3,0.3,0.6,0.7,0.7c-0.3,0.4-0.1,1,0.3,1.3
	c0.3,0.2,0.7,0.2,1,0c0.1,0.5,0.6,0.8,1.1,0.7c0.3-0.1,0.6-0.3,0.7-0.7c0.4,0.3,1,0.1,1.3-0.3c0.2-0.3,0.2-0.7,0-1
	c0.5-0.1,0.8-0.6,0.7-1.1C75.4,2.3,75.1,2.1,74.8,2z"/>
<path d="M74.8,34.7c0.3-0.4,0.1-1-0.3-1.3c-0.3-0.2-0.7-0.2-1,0c-0.1-0.5-0.6-0.8-1.1-0.7c-0.3,0.1-0.6,0.3-0.7,0.7
	c-0.4-0.3-1-0.1-1.3,0.3c-0.2,0.3-0.2,0.7,0,1c-0.5,0.1-0.8,0.6-0.7,1.1c0.1,0.3,0.3,0.6,0.7,0.7c-0.3,0.4-0.1,1,0.3,1.3
	c0.3,0.2,0.7,0.2,1,0c0.1,0.5,0.6,0.8,1.1,0.7c0.3-0.1,0.6-0.3,0.7-0.7c0.4,0.3,1,0.1,1.3-0.3c0.2-0.3,0.2-0.7,0-1
	c0.5-0.1,0.8-0.6,0.7-1.1C75.4,35.1,75.1,34.8,74.8,34.7z"/>
<path d="M105.2,15.9c0.3-0.4,0.1-1-0.3-1.3c-0.3-0.2-0.7-0.2-1,0c-0.1-0.5-0.6-0.8-1.1-0.7c-0.3,0.1-0.6,0.3-0.7,0.7
	c-0.4-0.3-1-0.1-1.3,0.3c-0.2,0.3-0.2,0.7,0,1c-0.5,0.1-0.8,0.6-0.7,1.1c0.1,0.3,0.3,0.6,0.7,0.7c-0.3,0.4-0.1,1,0.3,1.3
	c0.3,0.2,0.7,0.2,1,0c0.1,0.5,0.6,0.8,1.1,0.7c0.3-0.1,0.6-0.3,0.7-0.7c0.4,0.3,1,0.1,1.3-0.3c0.2-0.3,0.2-0.7,0-1
	c0.5-0.1,0.8-0.6,0.7-1.1C105.8,16.2,105.5,16,105.2,15.9L105.2,15.9z"/>
<path d="M25.5,34.7c0.3-0.4,0.1-1-0.3-1.3c-0.3-0.2-0.7-0.2-1,0c-0.1-0.5-0.6-0.8-1.1-0.7c-0.3,0.1-0.6,0.3-0.7,0.7
	c-0.4-0.3-1-0.1-1.3,0.3c-0.2,0.3-0.2,0.7,0,1c-0.5,0.1-0.8,0.6-0.7,1.1c0.1,0.3,0.3,0.6,0.7,0.7c-0.3,0.4-0.1,1,0.3,1.3
	c0.3,0.2,0.7,0.2,1,0c0.1,0.5,0.6,0.8,1.1,0.7c0.3-0.1,0.6-0.3,0.7-0.7c0.4,0.3,1,0.1,1.3-0.3c0.2-0.3,0.2-0.7,0-1
	c0.5-0.1,0.8-0.6,0.7-1.1C26.1,35.1,25.8,34.8,25.5,34.7L25.5,34.7z"/>
</svg>
