<?xml version="1.0" encoding="iso-8859-1"?>
<!-- Generator: Adobe Illustrator 24.0.3, SVG Export Plug-In . SVG Version: 6.00 Build 0)  -->
<svg version="1.1" id="Layer_1" xmlns="http://www.w3.org/2000/svg" xmlns:xlink="http://www.w3.org/1999/xlink" x="0px" y="0px"
	 viewBox="0 0 97.6 73.5" style="enable-background:new 0 0 97.6 73.5;" xml:space="preserve">
<path d="M61.5,14.5c-1,0-1.9-0.9-1.9-1.9V1.9c0-1,0.9-1.9,1.9-1.9s1.9,0.9,1.9,1.9v10.8C63.2,13.7,62.4,14.5,61.5,14.5z"/>
<path d="M95.7,38H84.9c-1,0-1.9-0.9-1.9-1.9s0.9-1.9,1.9-1.9h10.8c1,0,1.9,0.9,1.9,1.9C97.6,37.1,96.7,38,95.7,38z"/>
<path d="M46.1,20.9c-0.7,0.7-1.9,0.7-2.5,0l-7.7-7.7c-0.7-0.7-0.7-1.9,0-2.5c0.7-0.7,1.9-0.7,2.5,0l7.7,7.7
	C46.8,19,46.8,20.1,46.1,20.9z"/>
<path d="M86.9,61.7c-0.7,0.7-1.9,0.7-2.5,0L76.7,54c-0.7-0.7-0.7-1.9,0-2.5s1.9-0.7,2.5,0l7.7,7.7C87.7,60,87.7,61,86.9,61.7z"/>
<path d="M79.2,20.9c-0.7,0.7-1.9,0.7-2.5,0c-0.7-0.7-0.7-1.9,0-2.5l7.7-7.7c0.7-0.7,1.9-0.7,2.5,0c0.7,0.7,0.7,1.9,0,2.5L79.2,20.9z
	"/>
<path d="M47.6,34.4c6.3,0,11.7,4.7,12.5,10.8c4.6-0.2,8.7,1.7,11.4,4.8c4.2-3.1,7-8.2,7-13.9c0-9.6-7.7-17.1-17.1-17.1
	c-9.1,0-16.4,7-17.1,15.8C45.4,34.5,46.5,34.4,47.6,34.4z"/>
<path d="M60.8,73.5H17.5C7.8,73.5,0,65.7,0,56c0-7.9,5.5-14.9,13.2-16.9c1.2-7.6,7.7-13.3,15.4-13.3c6.3,0,12.2,4,14.5,9.9
	c1.5-0.6,2.9-0.9,4.5-0.9c6.2,0,11.4,4.8,12,10.8c8.1-0.7,15,5.8,15,13.9C74.6,67.3,68.4,73.5,60.8,73.5z M28.6,28.3
	c-6.8,0-12.5,5.1-13.2,11.9c0,0.5-0.5,1-1,1.1c-6.9,1.5-12,7.6-12,14.7c0,8.3,6.7,15,15,15h43.3c6.2,0,11.4-5.2,11.4-11.4
	s-5.2-11.4-11.4-11.4c-0.7,0-1.5,0.1-2.1,0.2c-0.4,0.1-0.7,0-1-0.2s-0.5-0.6-0.5-1v-0.1c0-5.5-4.3-9.7-9.7-9.7
	c-1.6,0-3.1,0.4-4.6,1.2c-0.4,0.1-0.7,0.2-1.1,0c-0.4-0.1-0.6-0.5-0.7-0.7C39.6,32.2,34.4,28.3,28.6,28.3z"/>
</svg>
