<?xml version="1.0" encoding="iso-8859-1"?>
<!-- Generator: Adobe Illustrator 24.0.3, SVG Export Plug-In . SVG Version: 6.00 Build 0)  -->
<svg version="1.1" id="Layer_1" xmlns="http://www.w3.org/2000/svg" xmlns:xlink="http://www.w3.org/1999/xlink" x="0px" y="0px"
	 viewBox="0 0 77.9 74.3" style="enable-background:new 0 0 77.9 74.3;" xml:space="preserve">
<path d="M77.9,43.7c-10.7,1-21.2-5-25.5-15.5c-3.8-9.3-1.7-19.6,4.7-26.6c-2.5,0.2-5,0.8-7.4,1.8C39.2,7.8,33.2,18.5,34.3,29.3
	c-1.9-0.6-3.9-1-6.1-1c-10.4,0-19,7.7-20.8,18.4C2.8,49.6,0,54.4,0,59.2c0,7.3,5.8,15.1,15.1,15.1h45.2c8.6,0,15.9-6.9,15.9-15.1
	c0-4.1-1.8-7.8-4.7-10.6C74,47.4,76.2,45.7,77.9,43.7z M71,59.3c0,5.3-4.8,9.8-10.6,9.8H15.2c-6.1,0-9.8-5.1-9.8-9.8
	c0-3.2,2.3-6.7,5.8-8.6l1.2-0.7l0.2-1.4c1-8.7,7.6-15,15.7-15c2.8,0,5.3,0.7,7.7,2.3c0.9,0.6,1.8,1.3,2.7,2.1l1,0.9l1.3-0.3
	c0.9-0.2,2.3-0.3,3-0.3c5.2,0,9.6,4,10.4,9.2l0.4,2.9l2.8-0.7c0.9-0.2,1.9-0.3,2.8-0.3c2,0,3.9,0.6,5.5,1.5
	C68.9,52.8,71,55.9,71,59.3z"/>
<polygon points="14.6,16.1 19.8,13.3 25.1,16.1 24.1,10.3 28.3,6.2 22.4,5.3 19.8,0 17.2,5.3 11.4,6.2 15.6,10.3 "/>
<polygon points="3.3,33.5 7,31.6 10.6,33.5 9.9,29.5 12.9,26.6 8.8,26 7,22.3 5.1,26 1.1,26.6 4,29.5 "/>
</svg>
