<?xml version="1.0" encoding="iso-8859-1"?>
<!-- Generator: Adobe Illustrator 24.0.3, SVG Export Plug-In . SVG Version: 6.00 Build 0)  -->
<svg version="1.1"
	 id="Layer_1" xmlns:cc="http://creativecommons.org/ns#" xmlns:dc="http://purl.org/dc/elements/1.1/" xmlns:inkscape="http://www.inkscape.org/namespaces/inkscape" xmlns:rdf="http://www.w3.org/1999/02/22-rdf-syntax-ns#" xmlns:sodipodi="http://sodipodi.sourceforge.net/DTD/sodipodi-0.dtd" xmlns:svg="http://www.w3.org/2000/svg"
	 xmlns="http://www.w3.org/2000/svg" xmlns:xlink="http://www.w3.org/1999/xlink" x="0px" y="0px" viewBox="0 0 47.555 30.005"
	 style="enable-background:new 0 0 47.555 30.005;" xml:space="preserve">
<path d="M13.08,0.005c-0.6,0.1-1.1,0.1-1.7,0.3c-2.1,0.8-3.6,2.5-4.3,4.6c-0.2,0-0.4-0.1-0.7-0.1c-0.6,0-1.2,0.1-1.8,0.3
	c-3.1,1.1-5,4.3-4.5,7.6c0.3,2.9,3,5.9,6.6,5.9c2.7,0,5.3,0,8,0c2.2-0.1,4.1-1.5,4.9-3.5c0.1-0.3,0.2-0.6,0.3-0.9h1.4c0,0,0,0,0.1,0
	c2.2-0.1,4.1-1.5,4.9-3.6s0.3-4.4-1.3-6c-1.5-1.5-3.6-1.7-5.5-1c-1.3-2.2-3.6-3.7-6.1-3.6 M13.28,1.005L13.28,1.005
	c2.2-0.1,4.3,1.3,5.4,3.4c0,0.1,0.1,0.1,0.1,0.1l0.1,0.1c0.2,0.2,0.4,0.2,0.6,0.1c1.7-0.7,3.5-0.6,4.7,0.7c1.3,1.3,1.7,3.1,1,4.9
	c-0.6,1.7-2.2,2.8-3.9,2.9h-1.4c0-0.9-0.3-1.8-0.7-2.6c-0.2-0.4-0.6-0.8-0.9-1.2c-0.9-0.9-2.2-1.3-3.4-1.3c-0.7,0-1.4,0.1-2.2,0.3
	c-0.8-1.3-2-2.4-3.5-2.9c-0.1,0-0.1-0.1-0.2-0.1c-0.1-0.1-0.2-0.1-0.2-0.1c-0.2-0.1-0.4-0.2-0.7-0.2c0.6-1.7,1.8-3.1,3.5-3.8
	C12.28,1.105,12.78,1.005,13.28,1.005L13.28,1.005z M6.68,5.905c2.5,0.1,4.4,1.7,5.4,3.3c0.2,0.4,0.5,0.4,0.8,0.3
	c1.7-0.6,3.5-0.5,4.8,0.7s1.7,3,1,4.6c-0.6,1.6-2.2,2.7-3.9,2.8c-2.6,0-5.2,0-7.9,0c-2.8-0.1-5.1-2.2-5.5-4.9s1.2-5.5,3.8-6.4
	C5.68,6.005,6.18,5.905,6.68,5.905L6.68,5.905z"/>
<path d="M33.98,11.405c-0.6,0.1-1.1,0.1-1.7,0.3c-2.1,0.8-3.6,2.5-4.3,4.6c-0.2,0-0.4-0.1-0.7-0.1c-0.6,0-1.2,0.1-1.8,0.3
	c-3.1,1.1-5,4.3-4.5,7.6c0.3,2.9,3,5.9,6.6,5.9c2.7,0,5.3,0,8,0c2.2-0.1,4.1-1.5,4.9-3.5c0.1-0.3,0.2-0.6,0.3-0.9h1.4c0,0,0,0,0.1,0
	c2.2-0.1,4.1-1.5,4.9-3.6c0.8-2.1,0.3-4.4-1.3-6c-1.5-1.5-3.6-1.7-5.5-1c-1.3-2.2-3.6-3.7-6.1-3.6 M34.28,12.405L34.28,12.405
	c2.2-0.1,4.3,1.3,5.4,3.4c0,0.1,0.1,0.1,0.1,0.1l0.1,0.1c0.2,0.2,0.4,0.2,0.6,0.1c1.7-0.7,3.5-0.6,4.7,0.7c1.3,1.3,1.7,3.1,1,4.9
	c-0.6,1.7-2.2,2.8-3.9,2.9h-1.4c0-0.9-0.3-1.8-0.7-2.6c-0.2-0.4-0.6-0.8-0.9-1.2c-0.9-0.9-2.2-1.3-3.4-1.3c-0.7,0-1.4,0.1-2.2,0.3
	c-0.8-1.3-2-2.4-3.5-2.9c-0.1,0-0.1-0.1-0.2-0.1c-0.1-0.1-0.2-0.1-0.2-0.1c-0.2-0.1-0.4-0.2-0.7-0.2c0.6-1.7,1.8-3.1,3.5-3.8
	C33.28,12.505,33.78,12.405,34.28,12.405L34.28,12.405z M27.58,17.305c2.5,0.1,4.4,1.7,5.4,3.3c0.2,0.4,0.5,0.4,0.8,0.3
	c1.7-0.6,3.5-0.5,4.8,0.7s1.7,3,1,4.6s-2.2,2.7-3.9,2.8c-2.6,0-5.2,0-7.9,0c-2.8-0.1-5.1-2.2-5.5-4.9c-0.4-2.8,1.2-5.5,3.8-6.4
	C26.58,17.405,27.08,17.305,27.58,17.305L27.58,17.305z"/>
</svg>
