<?xml version="1.0" encoding="iso-8859-1"?>
<!-- Generator: Adobe Illustrator 24.0.3, SVG Export Plug-In . SVG Version: 6.00 Build 0)  -->
<svg version="1.1"
	 id="Layer_1" xmlns:cc="http://creativecommons.org/ns#" xmlns:dc="http://purl.org/dc/elements/1.1/" xmlns:inkscape="http://www.inkscape.org/namespaces/inkscape" xmlns:rdf="http://www.w3.org/1999/02/22-rdf-syntax-ns#" xmlns:sodipodi="http://sodipodi.sourceforge.net/DTD/sodipodi-0.dtd" xmlns:svg="http://www.w3.org/2000/svg"
	 xmlns="http://www.w3.org/2000/svg" xmlns:xlink="http://www.w3.org/1999/xlink" x="0px" y="0px" viewBox="0 0 42.18 38.1"
	 style="enable-background:new 0 0 42.18 38.1;" xml:space="preserve">
<path d="M34.528,9.7c-3.7,0-6.7-3-6.7-6.7c0-1.1,0.3-2.1,0.7-3c-3.3,1.7-4.6,5.7-2.9,9s5.7,4.6,9,2.9c1.3-0.6,2.3-1.7,2.9-2.9
	C36.628,9.4,35.628,9.7,34.528,9.7z"/>
<path d="M21.028,8.3L21.028,8.3c-0.1,0-0.2,0-0.3,0.1c-0.9,0.1-1.8,0.2-2.6,0.5c-3.3,1.2-5.7,4-6.8,7.4c-0.4,0-0.7-0.1-1.1-0.1
	c-1,0-1.9,0.2-2.9,0.5c-5,1.8-8,6.9-7.2,12.1c0.4,4.7,4.8,9.3,10.5,9.3c4.3,0,8.4,0,12.7,0c3.5-0.2,6.6-2.4,7.8-5.5
	c0.2-0.5,0.4-1,0.4-1.5h2.3c0,0,0,0,0.1,0c3.5-0.2,6.5-2.5,7.7-5.8s0.4-7-2-9.6c-2.4-2.4-5.8-2.6-8.8-1.7c-2.1-3.5-5.8-5.9-9.7-5.8
	C21.128,8.3,21.128,8.3,21.028,8.3L21.028,8.3z M21.128,10L21.128,10c3.4-0.1,6.9,2,8.6,5.4c0,0.1,0.1,0.2,0.2,0.2l0.2,0.2
	c0.3,0.3,0.6,0.4,1,0.2c2.6-1.1,5.6-0.9,7.6,1.1s2.6,5,1.7,7.7c-1,2.6-3.4,4.5-6.2,4.7h-2.2c0-1.4-0.4-2.8-1.1-4.1
	c-0.4-0.7-0.9-1.3-1.4-1.8c-1.5-1.4-3.4-2.1-5.4-2.1c-1.1,0-2.3,0.2-3.4,0.5c-1.3-2.1-3.3-3.8-5.5-4.7c-0.1,0-0.2-0.1-0.3-0.1
	c-0.4-0.2-0.5-0.2-0.6-0.3c-0.4-0.1-0.7-0.3-1.1-0.4c0.9-2.7,2.8-5,5.5-6.1C19.528,10.2,20.328,10,21.128,10L21.128,10z
	 M10.528,17.9c4,0.1,7,2.6,8.5,5.2c0.4,0.6,0.8,0.6,1.2,0.5c2.7-0.9,5.6-0.8,7.7,1.1c2,1.9,2.6,4.8,1.7,7.3c-1,2.6-3.4,4.3-6.2,4.4
	c-4.1,0-8.4,0-12.6,0c-4.4-0.2-8.1-3.4-8.8-7.8s1.8-8.7,6.1-10.2C8.828,18,9.728,17.9,10.528,17.9L10.528,17.9z"/>
</svg>
