<?xml version="1.0" encoding="iso-8859-1"?>
<!-- Generator: Adobe Illustrator 24.0.3, SVG Export Plug-In . SVG Version: 6.00 Build 0)  -->
<svg version="1.1"
	 id="Layer_1" xmlns:cc="http://creativecommons.org/ns#" xmlns:dc="http://purl.org/dc/elements/1.1/" xmlns:inkscape="http://www.inkscape.org/namespaces/inkscape" xmlns:rdf="http://www.w3.org/1999/02/22-rdf-syntax-ns#" xmlns:sodipodi="http://sodipodi.sourceforge.net/DTD/sodipodi-0.dtd" xmlns:svg="http://www.w3.org/2000/svg"
	 xmlns="http://www.w3.org/2000/svg" xmlns:xlink="http://www.w3.org/1999/xlink" x="0px" y="0px" viewBox="0 0 86 92.041"
	 style="enable-background:new 0 0 86 92.041;" xml:space="preserve">
<g transform="translate(0,-952.36218)">
	<g transform="translate(7.0019695,956.33723)">
		<path d="M35.998-3.975c-6.4,0-12.8,2.4-17.7,7.3c-5.1,5.1-7.4,11.9-7.2,18.7h-0.1c-10,0-18,8-18,18s8,18,18,18h47
			c11.6,0,21-9.4,21-21c0-10.7-8.1-19.6-18.5-20.8c-0.9-4.7-3.2-9.2-6.8-12.9C48.798-1.575,42.398-3.975,35.998-3.975z
			 M35.998-1.975c5.9,0,11.7,2.2,16.2,6.7c3.5,3.5,5.7,7.9,6.4,12.5c0.1,0.4,0.5,0.8,0.9,0.8c9.8,0.9,17.5,9,17.5,19
			c0,10.5-8.5,19-19,19h-47c-8.9,0-16-7.1-16-16s7.1-16,16-16h1.1c0.6,0,1.1-0.5,1-1.1c-0.5-6.5,1.7-13.2,6.7-18.2
			C24.298,0.325,30.098-1.975,35.998-1.975z"/>
		<path d="M11.098,65.525l-4,6.9c-0.3,0.5-0.1,1.1,0.4,1.3c0.5,0.2,1.1,0.1,1.4-0.4l4-6.9c0.3-0.5,0.1-1.1-0.4-1.4
			C11.898,64.825,11.398,65.325,11.098,65.525z M28.098,65.525l-4,6.9c-0.2,0.5-0.1,1.1,0.4,1.3c0.5,0.2,1.1,0.1,1.4-0.4l4-6.9
			c0.2-0.5,0.1-1.1-0.4-1.4C28.898,64.825,28.398,65.225,28.098,65.525z M45.098,65.525l-4,6.9c-0.3,0.5-0.1,1.1,0.4,1.3
			c0.5,0.2,1.1,0.1,1.4-0.4l4-6.9c0.3-0.5,0.1-1.1-0.4-1.4C45.898,64.825,45.398,65.125,45.098,65.525z M62.098,65.525l-4,6.9
			c-0.3,0.5-0.1,1.1,0.4,1.3c0.5,0.2,1.1,0.1,1.3-0.4l4-6.9c0.3-0.5,0.1-1.1-0.4-1.4C62.898,64.825,62.398,65.125,62.098,65.525z
			 M15.098,79.625l-4,6.9c-0.3,0.5-0.1,1.1,0.4,1.4s1.1,0.1,1.4-0.4l4-6.9c0.3-0.5,0.1-1.1-0.4-1.3
			C15.898,78.925,15.398,79.225,15.098,79.625z M32.098,79.625l-4,6.9c-0.2,0.5-0.1,1.1,0.4,1.4s1.1,0.1,1.4-0.4l4-6.9
			c0.2-0.5,0.1-1.1-0.4-1.3C32.798,78.925,32.398,79.225,32.098,79.625z M49.098,79.625l-4,6.9c-0.3,0.5-0.1,1.1,0.4,1.4
			s1.1,0.1,1.3-0.4l4-6.9c0.3-0.5,0.1-1.1-0.4-1.3C49.798,78.925,49.398,79.225,49.098,79.625z"/>
	</g>
</g>
</svg>
