<?xml version="1.0" encoding="iso-8859-1"?>
<!-- Generator: Adobe Illustrator 24.0.3, SVG Export Plug-In . SVG Version: 6.00 Build 0)  -->
<svg version="1.1"
	 id="Layer_1" xmlns:cc="http://creativecommons.org/ns#" xmlns:dc="http://purl.org/dc/elements/1.1/" xmlns:inkscape="http://www.inkscape.org/namespaces/inkscape" xmlns:rdf="http://www.w3.org/1999/02/22-rdf-syntax-ns#" xmlns:sodipodi="http://sodipodi.sourceforge.net/DTD/sodipodi-0.dtd" xmlns:svg="http://www.w3.org/2000/svg"
	 xmlns="http://www.w3.org/2000/svg" xmlns:xlink="http://www.w3.org/1999/xlink" x="0px" y="0px" viewBox="0 0 90.7 89.482"
	 style="enable-background:new 0 0 90.7 89.482;" xml:space="preserve">
<g transform="translate(0,-952.36218)">
	<path d="M40.8,959.8c-6.2,0-12.5,2.3-17.3,6.8c-3.2,3.1-5.3,6.8-6.4,10.7C7.4,979,0,986.9,0,996.5c0,10.8,9.3,19.6,20.8,19.6h42.5
		c10,0,18.1-7.7,18.1-17.1c0-8.9-7.3-16.1-16.5-16.9c-0.2-5.7-2.4-11.3-7-15.6C53.3,962,47.1,959.8,40.8,959.8z M40.8,964.9
		c4.9,0,9.7,1.7,13.4,5.2c4.1,3.9,5.9,9.1,5.5,14.2c-0.1,1.4,1,2.6,2.5,2.8c0.1,0,0.2,0,0.2,0h1c7.1,0,12.7,5.3,12.7,12
		s-5.6,12-12.7,12H20.9c-8.5,0-15.4-6.5-15.4-14.5c0-7.6,6.2-13.9,14.1-14.5c1.2-0.1,2.3-1,2.5-2.1c0.6-3.6,2.4-7,5.3-9.7
		C31.1,966.6,35.9,964.9,40.8,964.9z M24.3,1018.9c-0.9,0.1-1.7,0.5-2.1,1.3l-9,14.8c-0.7,1.2-0.3,2.8,1,3.5s3,0.3,3.7-0.9l9-14.8
		c0.7-1.2,0.3-2.8-1-3.5C25.4,1019,24.9,1018.8,24.3,1018.9z M42.6,1018.9c-0.9,0.1-1.7,0.5-2.2,1.3L29.5,1038
		c-0.7,1.2-0.3,2.8,1,3.5s3,0.3,3.7-0.9l10.9-17.8c0.7-1.2,0.3-2.8-1-3.5C43.6,1019,43.1,1018.8,42.6,1018.9z M60.7,1018.9
		c-0.9,0.1-1.7,0.5-2.2,1.3l-9,14.8c-0.7,1.2-0.3,2.8,1,3.5s3,0.3,3.7-0.9l9-14.8c0.7-1.2,0.3-2.8-1-3.5
		C61.7,1019,61.2,1018.8,60.7,1018.9z"/>
</g>
<path d="M65.5,10.1c-0.7,0-1.3-0.6-1.3-1.3V1.3c0-0.7,0.6-1.3,1.3-1.3s1.3,0.6,1.3,1.3v7.6C66.7,9.5,66.2,10.1,65.5,10.1z"/>
<path d="M89.4,26.5h-7.6c-0.7,0-1.3-0.6-1.3-1.3s0.6-1.3,1.3-1.3h7.6c0.7,0,1.3,0.6,1.3,1.3C90.7,25.9,90.1,26.5,89.4,26.5z"/>
<path d="M78,14.5c-0.5,0.5-1.3,0.5-1.8,0s-0.5-1.3,0-1.8l5.3-5.3c0.5-0.5,1.3-0.5,1.8,0s0.5,1.3,0,1.8L78,14.5z"/>
<path d="M61,26.3c1,4,0.3,1.5,4.5,4.2c2.9-0.2,5.4,1.2,7.2,3.2c4.1-3,6.3-9.4,3.3-15.2c-0.8-1.6-2.2-2.9-3.8-3.8
	c-8-4.2-14.1-0.7-14.6,6.5C58.2,21,60.5,24.2,61,26.3z"/>
</svg>
