<?xml version="1.0" encoding="iso-8859-1"?>
<!-- Generator: Adobe Illustrator 24.0.3, SVG Export Plug-In . SVG Version: 6.00 Build 0)  -->
<svg version="1.1"
	 id="Layer_1" xmlns:cc="http://creativecommons.org/ns#" xmlns:dc="http://purl.org/dc/elements/1.1/" xmlns:inkscape="http://www.inkscape.org/namespaces/inkscape" xmlns:rdf="http://www.w3.org/1999/02/22-rdf-syntax-ns#" xmlns:sodipodi="http://sodipodi.sourceforge.net/DTD/sodipodi-0.dtd" xmlns:svg="http://www.w3.org/2000/svg"
	 xmlns="http://www.w3.org/2000/svg" xmlns:xlink="http://www.w3.org/1999/xlink" x="0px" y="0px" viewBox="0 0 77.4 82.544"
	 style="enable-background:new 0 0 77.4 82.544;" xml:space="preserve">
<g transform="translate(0,-952.36218)">
	<path d="M38.7,952.362c-5.9,0-11.9,2.2-16.4,6.8c-3.1,3.1-5.1,6.9-6,10.8c-9.2,1.6-16.3,9.6-16.3,19.4c0,10.9,8.9,19.8,19.8,19.8
		h40.4c9.5,0,17.2-7.7,17.2-17.2c0-8.9-6.9-16.3-15.7-17c-0.2-5.7-2.3-11.4-6.6-15.7C50.5,954.562,44.6,952.362,38.7,952.362z
		 M38.7,957.462c4.6,0,9.2,1.7,12.7,5.2c4,4,5.7,9.2,5.2,14.3c-0.1,1.5,0.9,2.7,2.3,2.8c0.1,0,0.2,0,0.3,0h0.9c6.7,0,12,5.3,12,12
		s-5.3,12-12,12H19.7c-8.1,0-14.6-6.5-14.6-14.6c0-7.7,5.9-13.9,13.4-14.6c1.2-0.1,2.2-0.9,2.3-2.2c0.6-3.6,2.2-7.1,5-9.8
		C29.5,959.162,34,957.462,38.7,957.462z M23,1011.862c-0.9,0.1-1.6,0.5-2.1,1.3l-8.6,14.9c-0.7,1.2-0.3,2.8,0.9,3.5
		c1.2,0.7,2.8,0.3,3.5-0.9l8.6-14.9c0.7-1.2,0.3-2.8-0.9-3.5C24,1011.962,23.5,1011.762,23,1011.862z M40.3,1011.862
		c-0.9,0.1-1.6,0.5-2.1,1.3l-10.3,17.9c-0.7,1.2-0.3,2.8,0.9,3.5s2.8,0.3,3.5-0.9l10.3-17.9c0.7-1.2,0.3-2.8-0.9-3.5
		C41.3,1011.962,40.8,1011.762,40.3,1011.862z M57.5,1011.862c-0.9,0.1-1.6,0.5-2.1,1.3l-8.6,14.9c-0.7,1.2-0.3,2.8,0.9,3.5
		s2.8,0.3,3.5-0.9l8.6-14.9c0.7-1.2,0.3-2.8-0.9-3.5C58.5,1011.962,58,1011.762,57.5,1011.862z"/>
</g>
</svg>
