<?xml version="1.0" encoding="iso-8859-1"?>
<!-- Generator: Adobe Illustrator 24.0.3, SVG Export Plug-In . SVG Version: 6.00 Build 0)  -->
<svg version="1.1" id="Layer_1" xmlns="http://www.w3.org/2000/svg" xmlns:xlink="http://www.w3.org/1999/xlink" x="0px" y="0px"
	 viewBox="0 0 92.7 72" style="enable-background:new 0 0 92.7 72;" xml:space="preserve">
<g>
	<path style="fill:none;stroke:#000000;stroke-width:4;stroke-linecap:round;stroke-linejoin:round;stroke-miterlimit:10;" d="
		M67.4,46.2h12.2c6.1,0,11.1-5,11.1-11.1S85.7,24,79.6,24c-0.1,0-0.1,0-0.2,0l0,0c0-12.1-9.8-22-22-22c-8.9,0-16.5,5.3-20,12.8
		c-2.3-1.2-4.9-1.9-7.7-1.9c-7.2,0-13.4,4.7-15.7,11.1c-0.3,0-0.6,0-0.9,0C7,24,2,29,2,35.1s5,11.1,11.1,11.1h14.5"/>
	
		<polygon style="fill:none;stroke:#000000;stroke-width:4;stroke-linecap:round;stroke-linejoin:round;stroke-miterlimit:10;" points="
		45.4,30.4 54.5,30.4 49.3,44.2 57.5,44.2 39.3,70 47,49.4 40,49.4 	"/>
</g>
</svg>
